<svg width="31" height="23" viewBox="0 0 31 23" fill="none" xmlns="http://www.w3.org/2000/svg">
<path d="M18.7879 22.5455L27.2425 22.5455C28.7965 22.5455 30.0607 21.2814 30.0607 19.7273L30.0607 11.2728C30.0607 9.71874 28.7965 8.45459 27.2425 8.45459L23.4505 8.45459L24.8766 1.11877C24.9302 0.8431 24.8578 0.558256 24.6793 0.341753C24.5009 0.125251 24.2353 2.95963e-05 23.9546 2.96209e-05L20.9112 2.98869e-05C20.0943 2.99584e-05 19.3682 0.534405 19.1209 1.30821L16.3862 7.795C16.3706 7.83215 16.3573 7.87022 16.3468 7.90875C16.0963 8.8087 15.9697 9.73939 15.9697 10.6746L15.9697 19.7273C15.9697 21.2814 17.2339 22.5455 18.7879 22.5455Z" fill="white"/>
<path d="M2.81816 22.5455L11.2727 22.5455C12.8268 22.5455 14.0909 21.2814 14.0909 19.7273L14.0909 11.2728C14.0909 9.71874 12.8268 8.45459 11.2727 8.45459L7.48028 8.45459L8.9068 1.11877C8.96092 0.8431 8.88845 0.558256 8.70956 0.341753C8.53159 0.125251 8.26556 2.95963e-05 7.98484 2.96209e-05L4.94098 2.9887e-05C4.12359 2.99584e-05 3.39794 0.534406 3.15117 1.30867L0.416472 7.79501C0.400878 7.83216 0.388036 7.87023 0.377026 7.90876C0.126574 8.80962 -2.87164e-05 9.7403 -2.86347e-05 10.6746L-2.78433e-05 19.7273C-2.77075e-05 21.2814 1.26412 22.5455 2.81816 22.5455Z" fill="white"/>
</svg>
