<svg width="112" height="118" viewBox="0 0 112 118" fill="none" xmlns="http://www.w3.org/2000/svg">
<path fill-rule="evenodd" clip-rule="evenodd" d="M19.4046 0H69.2392L111.451 44.0384V129.595C111.451 140.306 102.756 149 92.0459 149H19.4046C8.69427 149 0 140.306 0 129.595V19.4046C0 8.69427 8.69427 0 19.4046 0Z" fill="#339C69"/>
<path opacity="0.302" fill-rule="evenodd" clip-rule="evenodd" d="M69.1763 0V43.6604H111.451L69.1763 0Z" fill="white"/>
<path fill-rule="evenodd" clip-rule="evenodd" d="M32.824 109.309H52.6067V116.806H32.824V109.309ZM58.7809 71.0034H78.6266V78.4377H58.7809V71.0034ZM32.824 71.0034H52.6067V78.4377H32.824V71.0034ZM58.7809 83.6038H78.6266V91.1011H58.7809V83.6038ZM32.824 83.6038H52.6067V91.1011H32.824V83.6038ZM58.7809 96.7082H78.6266V104.206H58.7809V96.7082ZM32.824 96.7082H52.6067V104.206H32.824V96.7082ZM58.7809 109.309H78.6266V116.806H58.7809V109.309Z" fill="white"/>
</svg>
