<svg width="116" height="22" viewBox="0 0 116 22" fill="none" xmlns="http://www.w3.org/2000/svg">
<path d="M54.4998 21.0973V0.00149715H58.3987C58.9341 0.00146216 59.4597 0.145226 59.9207 0.417773C60.3816 0.690318 60.7608 1.08164 61.0188 1.55085L68.6535 15.4293H68.7626V2.99104C68.7625 2.59821 68.8398 2.20922 68.9901 1.84628C69.1404 1.48334 69.3607 1.15356 69.6384 0.875794C69.9161 0.598026 70.246 0.377714 70.6089 0.227441C70.9718 0.0771687 71.3608 -0.000117712 71.7537 1.34567e-07H73.2088V21.0958H67.5423L59.0552 5.63961H58.9475V21.0958H54.4998V21.0973Z" fill="#04BBF2"/>
<path d="M42.0406 12.4338H31.3611C31.6139 14.2778 32.1343 15.4563 32.9195 16.2699C33.7046 17.0834 34.8681 17.4902 36.404 17.4902H43.5631V21.0974H35.1837C32.3272 21.0974 30.1577 20.1937 28.6752 18.386C27.1927 16.5784 26.4513 13.9663 26.4513 10.5495C26.4513 7.13372 27.1927 4.52154 28.6752 2.71296C30.1577 0.904383 32.3272 0.000590674 35.1837 0.00158774H43.5631V0.616248C43.5632 1.00907 43.4859 1.39807 43.3356 1.761C43.1853 2.12395 42.965 2.45373 42.6873 2.73149C42.4096 3.00925 42.0797 3.22957 41.7169 3.37984C41.3539 3.53011 40.9649 3.6074 40.572 3.60728H36.404C35.8906 3.60926 35.3782 3.6548 34.8726 3.74338C34.3272 3.83966 33.8118 4.06247 33.3681 4.39393C32.8405 4.81013 32.4179 5.34442 32.1343 5.95376C31.7814 6.64917 31.5241 7.45376 31.3611 8.66514H42.0406C42.358 8.66514 42.6623 8.79119 42.8867 9.01557C43.111 9.23994 43.2371 9.54425 43.2371 9.86155V11.2389C43.2366 11.556 43.1104 11.8599 42.8861 12.084C42.6617 12.308 42.3577 12.4338 42.0406 12.4338Z" fill="#10385B"/>
<path d="M91.7458 12.4338H81.0648C81.3175 14.2778 81.8379 15.4563 82.6246 16.2699C83.4112 17.0834 84.5718 17.4902 86.1092 17.4902H93.2682V21.0974H84.8888C82.0324 21.0974 79.8634 20.1937 78.3818 18.386C76.9002 16.5784 76.159 13.9663 76.158 10.5495C76.158 7.13372 76.8993 4.52154 78.3818 2.71296C79.8643 0.904383 82.0334 0.000590674 84.8888 0.00158774H93.2682V0.616248C93.2682 1.40952 92.9531 2.1703 92.3921 2.73124C91.8312 3.29216 91.0704 3.60728 90.2772 3.60728H86.1092C85.5957 3.60926 85.0834 3.6548 84.5777 3.74338C84.0323 3.83966 83.517 4.06247 83.0732 4.39393C82.6022 4.7379 82.1909 5.25784 81.8394 5.95376C81.4865 6.64917 81.2293 7.45376 81.0663 8.66514H91.7473C92.0646 8.66514 92.369 8.79119 92.5933 9.01557C92.8176 9.23994 92.9437 9.54425 92.9437 9.86155V11.2389C92.9426 11.556 92.816 11.8598 92.5915 12.0837C92.367 12.3077 92.0628 12.4336 91.7458 12.4338Z" fill="#10385B"/>
<path d="M46.9355 21.0974V1.4971C46.9355 1.10047 47.0931 0.720079 47.3735 0.439614C47.6539 0.159149 48.0344 0.00158691 48.431 0.00158691H49.8876C50.2842 0.00158691 50.6647 0.159149 50.9451 0.439614C51.2255 0.720079 51.3831 1.10047 51.3831 1.4971V21.0974H46.9355Z" fill="#04BBF2"/>
<path d="M102.479 1.40438L106.156 7.26832L109.832 1.40438C110.102 0.975152 110.476 0.621291 110.919 0.375942C111.362 0.130594 111.861 0.00178826 112.367 0.00158696H116L108.407 10.5495L116 21.0974H110.713L106.158 13.8307L101.603 21.0974H96.3145L103.879 10.5495L96.3145 0.00158696H99.9471C100.453 0.00149544 100.951 0.1302 101.394 0.375601C101.837 0.620999 102.211 0.975027 102.479 1.40438Z" fill="#10385B"/>
<path d="M22.8949 12.4611C22.2347 11.5753 21.3225 10.9092 20.2778 10.5499C21.3979 10.0623 22.2249 9.35743 22.7588 8.43519C23.3055 7.45908 23.5817 6.35477 23.5589 5.23627C23.5769 4.44459 23.3949 3.66117 23.0295 2.95859C22.6856 2.3186 22.2039 1.76288 21.6193 1.33147C21.0125 0.887968 20.3334 0.552996 19.6123 0.341435C18.8693 0.116449 18.0973 0.0020629 17.3211 0.00195312H1.8036C1.32527 0.00199276 0.866538 0.192027 0.528306 0.530258C0.190073 0.86849 3.96578e-05 1.32722 0 1.80555V3.47305H15.9393C16.9697 3.47305 17.7334 3.70834 18.2304 4.17894C18.7274 4.64953 18.9756 5.30009 18.9752 6.13059C18.9752 6.9621 18.7269 7.61764 18.2304 8.0972C17.7319 8.57577 16.9682 8.81505 15.9393 8.81505H9.04192V12.2862H15.9393C16.9697 12.2862 17.7334 12.5214 18.2304 12.992C18.7274 13.4626 18.9756 14.1132 18.9752 14.9437C18.9752 15.7932 18.7269 16.4531 18.2304 16.9238C17.7319 17.3949 16.9682 17.6301 15.9393 17.6297H9.0494V21.1008H17.3226C18.1386 21.1027 18.9524 21.0164 19.7499 20.8435C20.4985 20.688 21.2084 20.384 21.8376 19.9492C22.4557 19.5095 22.9543 18.9224 23.2883 18.2413C23.6502 17.5265 23.8311 16.6272 23.8311 15.5434C23.8311 14.347 23.519 13.3196 22.8949 12.4611Z" fill="#10385B"/>
<path fill-rule="evenodd" clip-rule="evenodd" d="M3.26323 4.47766H0V7.94877H3.26323V4.47766ZM4.31009 7.94877V4.47766H7.95767V7.94877H4.31009Z" fill="#04BBF2"/>
<path fill-rule="evenodd" clip-rule="evenodd" d="M3.26323 8.8147H0V12.2858H3.26323V8.8147ZM4.31009 12.2858V8.8147H7.95767V12.2858H4.31009Z" fill="#04BBF2"/>
<path fill-rule="evenodd" clip-rule="evenodd" d="M3.26323 13.2202H0V16.6913H3.26323V13.2202ZM4.31009 16.6913V13.2202H7.95767V16.6913H4.31009Z" fill="#04BBF2"/>
<path fill-rule="evenodd" clip-rule="evenodd" d="M3.26323 17.6277H0V21.0988H3.26323V17.6277ZM4.31009 21.0988V17.6277H7.95767V21.0988H4.31009Z" fill="#10385B"/>
</svg>
