<svg width="129" height="23" viewBox="0 0 129 23" fill="none" xmlns="http://www.w3.org/2000/svg">
<path d="M60.6075 22.3009V0.00158256H64.9433C65.5387 0.00154557 66.1233 0.153511 66.6359 0.441606C67.1484 0.729699 67.5702 1.14335 67.8571 1.63932L76.3473 16.3095H76.4687V3.16167C76.4686 2.74643 76.5546 2.33526 76.7217 1.9516C76.8888 1.56796 77.1338 1.21937 77.4427 0.925756C77.7515 0.632142 78.1184 0.399261 78.5219 0.240416C78.9255 0.081571 79.3581 -0.000124428 79.795 1.42244e-07H81.4132V22.2993H75.1116L65.6734 5.96133H65.5537V22.2993H60.6075V22.3009Z" fill="#04BBF2"/>
<path d="M46.752 13.1432H34.8757C35.1568 15.0924 35.7355 16.3381 36.6087 17.1981C37.4818 18.0581 38.7757 18.488 40.4837 18.488H48.4451V22.301H39.1266C35.9501 22.301 33.5374 21.3457 31.8887 19.435C30.2401 17.5242 29.4156 14.7631 29.4156 11.1514C29.4156 7.54075 30.2401 4.77954 31.8887 2.86779C33.5374 0.956038 35.9501 0.000686429 39.1266 0.00174037H48.4451V0.651466C48.4453 1.0667 48.3593 1.47788 48.1921 1.86153C48.025 2.24518 47.78 2.59377 47.4712 2.88738C47.1623 3.18099 46.7955 3.41388 46.392 3.57272C45.9883 3.73156 45.5558 3.81326 45.1189 3.81313H40.4837C39.9128 3.81522 39.343 3.86335 38.7807 3.95699C38.1742 4.05876 37.601 4.29429 37.1076 4.64465C36.5208 5.0846 36.0508 5.64937 35.7355 6.29346C35.343 7.02855 35.057 7.87904 34.8757 9.15952H46.752C47.105 9.15952 47.4434 9.29277 47.6929 9.52994C47.9423 9.76712 48.0825 10.0888 48.0825 10.4242V11.8801C48.082 12.2153 47.9417 12.5366 47.6922 12.7734C47.4427 13.0102 47.1046 13.1432 46.752 13.1432Z" fill="white"/>
<path d="M102.028 13.1432H90.1496C90.4306 15.0924 91.0094 16.3381 91.8842 17.1981C92.759 18.0581 94.0496 18.488 95.7593 18.488H103.721V22.301H94.4022C91.2256 22.301 88.8136 21.3457 87.1659 19.435C85.5183 17.5242 84.694 14.7631 84.6929 11.1514C84.6929 7.54075 85.5173 4.77954 87.1659 2.86779C88.8146 0.956038 91.2268 0.000686429 94.4022 0.00174037H103.721V0.651466C103.721 1.48999 103.37 2.29417 102.746 2.88711C102.123 3.48003 101.277 3.81313 100.394 3.81313H95.7593C95.1883 3.81522 94.6186 3.86335 94.0562 3.95699C93.4497 4.05876 92.8766 4.29429 92.3831 4.64465C91.8593 5.00824 91.4019 5.55785 91.0111 6.29346C90.6186 7.02855 90.3325 7.87904 90.1512 9.15952H102.029C102.382 9.15952 102.721 9.29277 102.97 9.52994C103.22 9.76712 103.36 10.0888 103.36 10.4242V11.8801C103.359 12.2153 103.218 12.5364 102.968 12.7732C102.718 13.0099 102.38 13.1429 102.028 13.1432Z" fill="white"/>
<path d="M52.1955 22.301V1.58257C52.1955 1.16331 52.3708 0.76122 52.6826 0.464754C52.9945 0.168291 53.4176 0.0017395 53.8586 0.0017395H55.4785C55.9196 0.0017395 56.3427 0.168291 56.6545 0.464754C56.9663 0.76122 57.1416 1.16331 57.1416 1.58257V22.301H52.1955Z" fill="#04BBF2"/>
<path d="M113.964 1.48456L118.053 7.68302L122.141 1.48456C122.441 1.03084 122.856 0.656796 123.35 0.39745C123.843 0.138106 124.397 0.00195233 124.96 0.00173955H129L120.556 11.1514L129 22.301H123.121L118.055 14.6197L112.989 22.301H107.108L115.52 11.1514L107.108 0.00173955H111.148C111.711 0.00164281 112.265 0.13769 112.758 0.39709C113.25 0.656488 113.665 1.03071 113.964 1.48456Z" fill="white"/>
<path d="M25.4607 13.172C24.7265 12.2356 23.7121 11.5315 22.5503 11.1517C23.796 10.6363 24.7157 9.8912 25.3094 8.91635C25.9173 7.88455 26.2244 6.71725 26.1992 5.53494C26.2191 4.69809 26.0167 3.86998 25.6104 3.12732C25.2279 2.45082 24.6922 1.8634 24.0421 1.40738C23.3674 0.938574 22.6121 0.584493 21.8102 0.360863C20.984 0.123041 20.1254 0.00213019 19.2623 0.00201416H2.00573C1.47379 0.00205605 0.96365 0.202931 0.587513 0.560458C0.211375 0.917985 4.41022e-05 1.40288 0 1.9085V3.67113H17.7256C18.8715 3.67113 19.7208 3.91984 20.2735 4.41729C20.8261 4.91473 21.1022 5.60239 21.1017 6.48028C21.1017 7.35922 20.8256 8.05215 20.2735 8.55908C19.7191 9.06495 18.8698 9.31788 17.7256 9.31788H10.0552V12.987H17.7256C18.8715 12.987 19.7208 13.2357 20.2735 13.7332C20.8261 14.2306 21.1022 14.9183 21.1017 15.7962C21.1017 16.6941 20.8256 17.3917 20.2735 17.8892C19.7191 18.3871 18.8698 18.6358 17.7256 18.6353H10.0636V22.3045H19.2639C20.1713 22.3065 21.0764 22.2153 21.9632 22.0326C22.7958 21.8681 23.5852 21.5468 24.2849 21.0872C24.9723 20.6224 25.5268 20.0018 25.8981 19.2819C26.3006 18.5263 26.5019 17.5757 26.5019 16.4301C26.5019 15.1654 26.1548 14.0794 25.4607 13.172Z" fill="white"/>
<path fill-rule="evenodd" clip-rule="evenodd" d="M3.62893 4.73315H0V8.40228H3.62893V4.73315ZM4.79312 8.40228V4.73315H8.84948V8.40228H4.79312Z" fill="#04BBF2"/>
<path fill-rule="evenodd" clip-rule="evenodd" d="M3.62893 9.31757H0V12.9867H3.62893V9.31757ZM4.79312 12.9867V9.31757H8.84948V12.9867H4.79312Z" fill="#04BBF2"/>
<path fill-rule="evenodd" clip-rule="evenodd" d="M3.62893 13.9745H0V17.6436H3.62893V13.9745ZM4.79312 17.6436V13.9745H8.84948V17.6436H4.79312Z" fill="#04BBF2"/>
<path fill-rule="evenodd" clip-rule="evenodd" d="M3.62893 18.6332H0V22.3024H3.62893V18.6332ZM4.79312 22.3024V18.6332H8.84948V22.3024H4.79312Z" fill="white"/>
</svg>
