<svg width="30" height="30" viewBox="0 0 30 30" fill="none" xmlns="http://www.w3.org/2000/svg">
<path d="M25.2539 18.7852C25.1953 18.5742 25.3242 18.2812 25.4473 18.0703C25.4849 18.0075 25.526 17.9469 25.5703 17.8887C26.6228 16.3247 27.1858 14.4828 27.1875 12.5977C27.2051 7.19531 22.6465 2.8125 17.0098 2.8125C12.0937 2.8125 7.99219 6.1582 7.03125 10.5996C6.88749 11.2579 6.81481 11.9297 6.81445 12.6035C6.81445 18.0117 11.1973 22.5117 16.834 22.5117C17.7305 22.5117 18.9375 22.2422 19.5996 22.0605C20.2617 21.8789 20.918 21.6387 21.0879 21.5742C21.2621 21.5085 21.4467 21.4748 21.6328 21.4746C21.8359 21.4738 22.0371 21.5137 22.2246 21.5918L25.5469 22.7695C25.6197 22.8004 25.6967 22.8201 25.7754 22.8281C25.8997 22.8281 26.0189 22.7787 26.1068 22.6908C26.1948 22.6029 26.2441 22.4837 26.2441 22.3594C26.2401 22.3057 26.2302 22.2527 26.2148 22.2012L25.2539 18.7852Z" stroke="white" stroke-width="1.5" stroke-miterlimit="10" stroke-linecap="round"/>
<path d="M3.89418 13.5938C3.12568 14.9744 2.75392 16.5406 2.82 18.1193C2.88607 19.698 3.38741 21.2277 4.26859 22.5393C4.40394 22.7438 4.48011 22.902 4.45668 23.008C4.43324 23.1141 3.75765 26.6332 3.75765 26.6332C3.7414 26.7156 3.74757 26.8008 3.7755 26.8799C3.80343 26.9591 3.85211 27.0293 3.91644 27.0832C4.00229 27.1516 4.10903 27.1884 4.21879 27.1875C4.27744 27.1877 4.33549 27.1757 4.38929 27.1523L7.68285 25.8633C7.90953 25.7739 8.1624 25.7781 8.38597 25.875C9.49574 26.3074 10.7227 26.5781 11.9502 26.5781C13.5975 26.5799 15.2158 26.1454 16.6407 25.3189" stroke="white" stroke-width="1.5" stroke-miterlimit="10" stroke-linecap="round"/>
</svg>
